<?xml version="1.0" encoding="UTF-8"?>
<svg id="Layer_1" data-name="Layer 1" xmlns="http://www.w3.org/2000/svg" viewBox="0 0 1000 1000">
  <defs>
    <style>
      .cls-1 {
        stroke: #000;
        stroke-miterlimit: 10;
        stroke-width: 18.31px;
      }
    </style>
  </defs>
  <path class="cls-1" d="M596.05,713.12c-48.28,23.95-108.25,70.17-180.41,151.24-12.86.22-26.45,1.75-41.32,4.71,71.22-83.11,131.88-134.46,181.22-165.12,49.48-31.08,87.64-41.47,117.3-52.44,29.68-10.55,50.87-21.67,66.84-44.58,15.86-21.65,26.5-55.1,32.54-81.36,8.18,8.3,16.57,15.52,25.59,21.43,13.88,38.66,19.94,78.87,19.54,113.35-.29,34.85-7.06,63.98-16.36,89.05-9.2,25.44-20.93,46.82-28.7,74.74-7.65,28.29-11.33,63.13-1.91,124.04-23.01-1.08-44.99-3.27-65.71-6.29-.26-69.71,10.51-109.41,24.55-140.29-66.36-23.6-99.59-59.35-133.17-88.48ZM741.44,778.78c14.1-25.42,28.79-47.91,37.53-77.97,8.92-29.57,11.88-66.72,6.52-110.21-13.5,31.21-32.51,55.81-57.45,70.16-25.05,15.35-56.04,20.46-96.08,35.84,27.08,29.33,55.65,60.71,109.48,82.18Z"/>
  <path class="cls-1" d="M567.65,355.34c24.45,10.12,50.8,18.38,74.92,27.15,24.18,8.71,44.13,17.85,55.82,28.74,12.66,10.82,16.32,23.08,11.81,37-4.4,14.04-18.12,29.19-37.63,49.05-17.89,18.46-37.96,38.19-63.48,57.27-25.39,18.93-54.46,36.67-87.16,47.67-31.91,11.54-66.27,16.22-99.3,11.23-33-4.83-62.06-18.53-84.51-38.79-52.46-53.26-73.71-104.13-93.75-144.67-19.51-41.47-37.82-72.61-72.04-108,39.42-43.99,74.11-75.94,103.27-100.45,24.9,44.64,37.3,84.13,51.92,126.81,15.1,42.04,32.41,87.27,78.23,128.79,9.04,7.62,20.09,14.47,33.35,20.21,13.25,5.75,27.77,9.07,42.95,10.11,15.04,1.26,29.99-.39,44.3-4.13,14.34-3.75,26.44-10.62,36.37-19.24,11.22-9.48,17-17.63,17.13-25.23.17-7.59-3.39-14.45-10.18-21.14-7.4-6.52-16.79-12.85-27.36-19.46-10.57-6.6-21.22-13.06-31.71-19.6-46.16-29.59-64.15-69.28-79.64-114.64-15.09-45.58-27.69-96.82-53.78-154.72,10.22-16.52,15.28-35.6,16.25-60.24,36.43,69.47,55.23,129.37,76.06,177.94,21.19,48.51,44.4,85.69,98.18,108.36Z"/>
</svg>