<?xml version="1.0" encoding="UTF-8"?>
<svg id="Layer_1" data-name="Layer 1" xmlns="http://www.w3.org/2000/svg" viewBox="0 0 1000 1000">
  <defs>
    <style>
      .cls-1 {
        fill: #fff;
      }
    </style>
  </defs>
  <g>
    <path class="cls-1" d="M166.51,888.38c-13.61,25.22-27.48,50.07-41.63,73.88-5.02,2.19-10.03,4.4-15.05,6.64,51.45-83.47,99.54-180.58,145.11-267.17,3.79-2.48,7.56-4.9,11.31-7.26-12.75,66.07-23.62,139.22-30.71,222.56-4.72,1.83-9.42,3.66-14.13,5.5,2.34-22.93,4.94-45.1,7.76-66.6-20.82,10.13-41.68,20.88-62.67,32.45ZM231.67,838.82c5.57-39.61,11.89-76.9,18.7-112.27-23.67,46.02-48.07,94.24-73.32,141.79,18.32-10.5,36.5-20.29,54.62-29.52Z"/>
    <path class="cls-1" d="M380.85,763.04c-1.28,7.94-2.93,15.94-5,23.98-2.05,8.15-4.57,16.24-7.57,24.24-3.01,8-6.51,15.66-10.55,22.89-4.05,7.25-8.65,13.87-13.82,19.83-5.17,5.96-10.97,10.92-17.36,14.87-4.36,2.77-8.61,4.68-12.71,5.71-4.1,1.04-7.89,1.16-11.33.38-2.77-.52-5.27-1.59-7.5-3.2-2.23-1.61-4.14-3.84-5.71-6.67-1.52,8.82-3.01,17.74-4.49,26.76-4.65,2.94-9.32,5.87-13.98,8.8,13.11-94.73,29.52-177.91,48.06-251.12,4.14-3.06,8.26-6.05,12.36-8.97-7.27,28.72-14.2,59.04-20.71,91.08,2.35-4.76,4.84-9.37,7.46-13.83,2.62-4.45,5.4-8.68,8.34-12.7,3.56-4.89,7.28-9.33,11.17-13.33,3.89-4,7.89-7.34,12.02-10.03,5.27-3.45,9.8-5.35,13.65-5.74,3.85-.39,7.1.36,9.8,2.23,2.62,2.02,4.73,4.97,6.34,8.88,1.61,3.91,2.83,8.49,3.67,13.76.84,5.27,1.32,11.01,1.43,17.24.11,6.24-.06,12.6-.52,19.11-.09,1.12-.17,2.25-.26,3.38-.58,7.04-1.5,14.51-2.79,22.45ZM371.33,728.97c.08-5.59-.23-10.71-.89-15.37-.46-4.03-1.25-7.57-2.39-10.64-1.14-3.07-2.65-5.44-4.56-7.15-1.91-1.61-4.33-2.26-7.27-1.94-2.94.31-6.42,1.77-10.46,4.42-3.76,2.54-7.51,5.82-11.26,9.85-3.75,4.04-7.35,8.57-10.8,13.63-3.45,5.06-6.64,10.44-9.58,16.17-2.93,5.72-5.4,11.45-7.38,17.19-5.05,27.13-9.78,55.45-14.17,85.03.83,4.14,2.17,7.57,4.02,10.29,1.85,2.71,4.09,4.63,6.71,5.71,2.7,1.14,5.82,1.4,9.34.77,3.52-.63,7.32-2.2,11.37-4.7,4.79-3.09,9.18-6.89,13.15-11.4,3.97-4.51,7.56-9.51,10.79-15,3.06-5.38,5.81-11.14,8.27-17.24,2.46-6.11,4.55-12.29,6.29-18.55,1.96-7.04,3.55-14.04,4.81-20.99,1.25-6.95,2.18-13.59,2.78-19.92.14-1.17.28-2.33.42-3.49.47-5.51.74-11.06.81-16.65Z"/>
    <path class="cls-1" d="M490.56,680.59c-2.13-1.77-4.73-2.74-7.82-2.91-2.81-.09-5.74.34-8.8,1.29-3.07.95-5.94,2.01-8.61,3.16-2.93,1.16-5.91,2.45-8.93,3.86-3.03,1.42-5.94,2.68-8.72,3.76-3.67,1.61-7.35,2.87-11.02,3.75-3.67.89-7.07,1.14-10.16.72-3.37-.49-6.26-2-8.64-4.52-2.39-2.52-3.85-6.61-4.36-12.19-.78-7.08.15-14.43,2.68-22.01,2.53-7.57,5.82-14.42,9.83-20.56,3.69-5.72,7.69-10.87,11.99-15.47,4.29-4.59,8.56-8.38,12.81-11.42,4.84-3.47,9.61-6.02,14.35-7.73,4.75-1.7,9.09-2.25,13.08-1.7,4,.55,7.51,2.31,10.59,5.28,3.08,2.98,5.4,7.43,6.99,13.49-3.84,2.66-7.7,5.37-11.57,8.14-1-4.26-2.55-7.38-4.68-9.42-2.13-2.03-4.63-3.21-7.51-3.54-2.87-.25-5.98.29-9.36,1.63-3.38,1.35-6.71,3.21-10.02,5.59-3.1,2.31-6.26,5.14-9.51,8.5-3.25,3.36-6.2,7.06-8.85,11.11-2.7,4.18-4.91,8.61-6.59,13.31-1.69,4.7-2.45,9.47-2.25,14.31.22,4.07,1.13,6.97,2.73,8.64,1.6,1.67,3.57,2.58,5.9,2.71,2.32.14,4.88-.24,7.65-1.13,2.77-.89,5.47-1.91,8.09-3.05,2.94-1.21,5.94-2.49,9-3.86,3.06-1.37,6-2.54,8.83-3.51,3.65-1.33,7.32-2.43,11.01-3.32,3.69-.89,7.32-1.19,10.89-.93,4.11.34,7.67,1.84,10.72,4.49,3.05,2.66,5.21,6.67,6.5,12.13,1.85,6.97,2.22,14.11.95,21.49-1.27,7.38-3.61,14.61-7.13,21.69-3.38,7.18-7.6,14.03-12.7,20.48-5.1,6.46-10.33,12.03-15.65,16.64-5.7,4.94-11.57,8.98-17.57,12.06-5.99,3.08-11.72,4.59-17.1,4.5-5.4.18-10.2-1.48-14.33-4.91-4.13-3.43-7.07-9.18-8.78-17.07,4.37-3.8,8.71-7.57,13.03-11.3,1.46,5.39,3.64,9.29,6.49,11.63,2.86,2.35,6.15,3.41,9.83,3.17,3.68-.23,7.61-1.48,11.74-3.72,4.13-2.24,8.19-5.12,12.17-8.6,3.56-3,7.17-6.69,10.78-11.03,3.62-4.33,6.81-8.96,9.56-13.88,2.76-4.91,4.78-9.98,6.09-15.2,1.31-5.22,1.5-10.35.63-15.41-.71-4.35-2.13-7.38-4.26-9.16Z"/>
    <path class="cls-1" d="M540.14,542.54c10.92-8.06,21.66-15.39,32.3-22.06,1.04,2.73,2.13,5.46,3.25,8.22-10.71,6.95-21.53,14.57-32.52,22.93,7.19,20.85,16.27,42.6,27.6,65.25,1.8,3.32,3.9,5.89,6.24,7.69,2.35,1.8,4.9,2.82,7.63,3.07,2.68.3,5.49-.19,8.42-1.45,2.93-1.26,5.93-3.28,8.97-6.01,2.91-2.51,5.58-5.17,8.01-7.99,2.42-2.81,4.81-5.61,7.14-8.4,2.55,2.1,5.14,4.19,7.78,6.27-1.97,3.77-4.46,7.43-7.5,10.95-3.04,3.53-6.27,6.84-9.67,9.91-4.42,4.15-8.88,7.25-13.35,9.18-4.48,1.93-8.83,2.76-13.01,2.44-4.18-.32-8.11-1.81-11.75-4.47-3.63-2.65-6.81-6.42-9.49-11.21-11.2-23.44-20.13-45.88-27.16-67.36-8.33,6.61-16.77,13.65-25.32,21.14-1-3.34-1.96-6.66-2.88-9.95,8.5-7.26,16.88-14.08,25.16-20.48-2.61-8.7-4.91-17.24-6.93-25.62,3.31-2.37,6.6-4.67,9.88-6.9,2.11,8.14,4.5,16.42,7.2,24.84Z"/>
    <path class="cls-1" d="M642.48,469.78c2.13-.88,4.33-1.62,6.62-2.24,1.69,2.33,3.44,4.66,5.24,6.98-2.19.77-4.32,1.6-6.4,2.49-2.08.89-4.04,1.89-5.89,3.01-3.23,1.96-6.04,4.25-8.43,6.9-2.39,2.66-4.18,5.53-5.37,8.62-1.29,3.36-1.84,6.95-1.6,10.75.24,3.8,1.36,7.63,3.44,11.4,13.54,15.03,29.31,29.84,47.42,44.16-2.84,2.78-5.67,5.64-8.51,8.58-28.34-23.31-50.79-47.65-68.08-72.09,2.63-1.97,5.25-3.88,7.87-5.74,2.69,3.57,5.49,7.14,8.42,10.69.84,1.12,1.7,2.24,2.56,3.36-.5-3.53-.5-6.94-.05-10.23.45-3.29,1.38-6.39,2.75-9.3,1.41-2.87,3.31-5.52,5.66-7.94,2.35-2.42,5.14-4.56,8.35-6.43,1.88-1.1,3.89-2.08,6.02-2.96Z"/>
    <path class="cls-1" d="M774.34,472.65c-2.56-.74-5.02-1.56-7.38-2.46,1.06,1.59,1.86,3.19,2.4,4.83.54,1.64.73,3.28.57,4.91-.18,2.14-.89,4.27-2.14,6.41-1.24,2.14-3.14,4.24-5.69,6.3-2.55,2.06-5.63,3.88-9.23,5.41-3.6,1.53-7.49,2.65-11.65,3.3-4.19.69-8.54.87-12.99.48-4.45-.38-8.78-1.46-12.94-3.24-4.03-1.74-7.09-3.68-9.22-5.76-2.14-2.08-3.57-4.27-4.31-6.53-.73-2.2-.88-4.42-.48-6.63.4-2.21,1.24-4.35,2.48-6.42,1.25-2.06,2.82-4.01,4.68-5.86,1.87-1.84,3.86-3.55,5.98-5.13,4.44-3.13,8.89-6.17,13.35-9.13-3.1-1.62-6.14-3.27-9.1-4.95-2.99-1.61-5.96-2.79-8.97-3.54-3.01-.75-5.93-1.14-8.8-1.16-2.87-.01-5.6.34-8.22,1.09-2.62.75-4.98,1.83-7.1,3.26-2.06,1.34-3.72,2.86-4.99,4.58-1.26,1.72-2.02,3.54-2.25,5.43-.25,1.98.05,3.98.94,5.97.89,2,2.54,3.93,4.98,5.77-2.23,1.7-4.46,3.44-6.68,5.22-3.68-2.49-6.17-5.24-7.56-8.17-1.39-2.93-1.87-5.85-1.5-8.71.34-2.83,1.42-5.51,3.2-8.03,1.79-2.52,4.08-4.69,6.87-6.55,2.99-1.93,6.3-3.37,9.97-4.36,3.66-.99,7.51-1.46,11.58-1.46,4.09.06,8.24.62,12.54,1.67,4.3,1.04,8.51,2.65,12.7,4.8,12.72,7.08,26.69,13.61,41.91,19.5,3.19,1.18,6.55,2.22,10.09,3.11,3.54.88,7.28,1.66,11.23,2.33.43.11.86.23,1.28.34-2.42,1.73-4.82,3.47-7.21,5.23-3.01-.51-5.79-1.13-8.35-1.87ZM757.69,483.21c1.15-2,1.77-3.98,1.88-5.96.03-1.92-.41-3.85-1.3-5.81-.89-1.95-2.21-3.84-3.94-5.68-6.71-2.85-13.17-5.84-19.37-8.94-3.88,2.61-7.74,5.27-11.59,8.01-1.92,1.38-3.78,2.94-5.58,4.71-1.79,1.77-3.2,3.63-4.22,5.59-.81,1.39-1.39,2.8-1.74,4.24-.34,1.44-.31,2.9.11,4.36.41,1.55,1.31,3.06,2.7,4.52,1.39,1.46,3.43,2.83,6.11,4.08,2.78,1.32,5.68,2.16,8.67,2.5,3,.35,5.89.3,8.67-.12,2.85-.4,5.48-1.11,7.9-2.11,2.42-1,4.53-2.21,6.32-3.61,2.42-1.85,4.21-3.77,5.36-5.77Z"/>
    <path class="cls-1" d="M821.09,428.76c.19-1.77-.3-3.47-1.47-5.09-1.2-1.59-3.04-3.06-5.5-4.42-2.46-1.37-5.51-2.56-9.12-3.62,1.53-1.63,3.06-3.27,4.58-4.92,5.23,1.17,9.68,2.63,13.29,4.44,3.61,1.8,6.31,3.79,8.04,5.98,1.84,2.17,2.69,4.48,2.5,6.94-.18,2.46-1.43,4.88-3.74,7.26-2.26,2.32-5.17,4.31-8.72,5.94-3.54,1.63-7.48,2.94-11.79,3.89-4.28.92-8.86,1.54-13.7,1.81-4.85.28-9.7.26-14.54-.07-4.22-.29-8.39-.81-12.5-1.56-4.1-.75-8.03-1.67-11.78-2.77-1.3-.4-2.58-.8-3.86-1.21-6.37-2.07-11.91-4.6-16.65-7.53-4.74-2.93-8.34-6.08-10.89-9.35-2.44-3.24-3.57-6.54-3.5-9.84.07-3.3,1.72-6.37,4.87-9.22,2.32-2.13,5.17-3.77,8.59-4.96,3.42-1.19,7.14-1.95,11.22-2.33,4.16-.31,8.58-.21,13.32.26,4.74.48,9.6,1.36,14.64,2.63-1.52,1.55-3.04,3.09-4.56,4.62-3.57-.94-7.06-1.61-10.51-2.01-3.45-.4-6.7-.52-9.8-.35-3.01.23-5.77.78-8.31,1.64-2.54.86-4.65,2.07-6.35,3.62-1.72,1.59-2.81,3.22-3.25,4.92-.44,1.69-.35,3.42.29,5.17.61,1.71,1.65,3.39,3.16,5.05,1.51,1.65,3.39,3.26,5.65,4.81,2.2,1.53,4.74,2.98,7.65,4.34,2.9,1.36,5.98,2.57,9.24,3.64,1.27.41,2.54.82,3.82,1.23,3.02.91,6.26,1.71,9.71,2.4,3.45.68,6.98,1.19,10.57,1.52,3.66.34,7.3.47,10.9.39,3.6-.08,6.97-.42,10.09-1.01,3.3-.6,6.29-1.48,8.97-2.6,2.68-1.13,4.87-2.58,6.53-4.34,1.74-1.75,2.71-3.52,2.9-5.3Z"/>
    <path class="cls-1" d="M757.56,364.41c2.78-6.08,5.44-12.34,7.94-18.82,2.61.79,5.27,1.54,7.99,2.26-2.45,6.53-5.05,12.85-7.78,18.98,18.96,5.29,40.45,9,64.88,10.8,3.69.21,7.15.11,10.32-.29,3.17-.4,6.01-1.07,8.49-2.01,2.46-.91,4.52-2.07,6.15-3.47,1.62-1.41,2.77-3.04,3.43-4.89.71-1.75,1.06-3.47,1.06-5.15,0-1.69-.06-3.38-.19-5.08,3.67-.5,7.39-1.05,11.17-1.65,1.16,1.79,1.73,3.74,1.68,5.85-.06,2.11-.47,4.2-1.27,6.27-.92,2.72-2.68,5.16-5.26,7.29-2.58,2.13-5.79,3.93-9.6,5.38-3.81,1.45-8.16,2.51-12.97,3.16-4.81.65-9.92.85-15.26.58-24.51-1.96-46.1-5.81-65.16-11.21-2.1,4.53-4.27,8.96-6.49,13.33-2.83-.81-5.62-1.65-8.35-2.53,2.26-4.34,4.47-8.74,6.62-13.23-7.49-2.41-14.56-5.08-21.27-7.97.92-1.79,1.83-3.6,2.73-5.43,6.66,2.84,13.7,5.46,21.15,7.81Z"/>
    <path class="cls-1" d="M741.76,305.87c-1.1-1.18-1.6-2.54-1.52-4.07.08-1.54.73-2.64,1.95-3.31,1.22-.68,2.72-.8,4.54-.4,1.77.36,3.22,1.11,4.34,2.27,1.12,1.16,1.66,2.51,1.58,4.04-.07,1.49-.71,2.6-1.91,3.32-1.19.72-2.72.9-4.54.54-1.86-.41-3.34-1.21-4.45-2.39ZM768.03,304.74c24.77,4.5,54.24,5.04,90.33.08-1.34-7.07-2.82-14.27-4.44-21.59,3.79-.57,7.65-1.22,11.59-1.93,4.28,17.39,7.68,34.14,10.41,50.09-4.34.61-8.6,1.16-12.78,1.65-1.04-6.93-2.2-14.01-3.49-21.24-32.57,4.32-59.88,4.32-83.24,1.06.01,7.05-.09,13.9-.29,20.56-3.03-.39-5.99-.83-8.89-1.31.45-8.79.74-17.89.81-27.36Z"/>
    <path class="cls-1" d="M789.94,276.69c-5.76-.78-10.83-2.45-15.29-4.91-4.28-2.36-7.84-5.44-10.78-9.19-2.94-3.76-4.86-8.18-5.95-13.25-.75-3.42-.98-6.61-.72-9.55.27-2.93.93-5.53,1.99-7.79,1.01-2.02,2.28-3.86,3.83-5.52,1.56-1.67,3.33-3.12,5.35-4.35,2.25-1.32,4.73-2.4,7.48-3.25,2.76-.85,5.66-1.46,8.75-1.83.72-.09,1.45-.19,2.19-.29,4.85-.54,9.99-.59,15.52-.19,5.53.4,11.01,1.28,16.42,2.71,5.46,1.41,10.62,3.42,15.34,6.14,4.73,2.72,8.56,6.26,11.26,10.74,1.9,3.19,2.85,6.35,2.81,9.47-.04,3.13-.89,6.14-2.54,9.02-1.34,2.37-3.1,4.63-5.27,6.76-2.17,2.13-4.64,4.09-7.4,5.86-3.23,2.08-6.78,3.88-10.6,5.36-3.82,1.48-7.73,2.59-11.7,3.33-.93.15-1.85.3-2.76.44-6.17,1-12.17,1.09-17.93.31ZM820.68,265.05c4.33-1.87,8.12-4.23,11.26-6.99,2.8-2.5,4.72-5.36,5.71-8.52.99-3.16.53-6.44-1.34-9.84-1.94-3.66-4.88-6.5-8.63-8.6-3.75-2.1-7.84-3.66-12.18-4.76-4.37-1.04-8.9-1.65-13.55-1.89-4.65-.24-8.66-.21-12.15.18-.76.09-1.52.18-2.28.26-3.75.48-7.33,1.35-10.79,2.63-3.46,1.28-6.22,3.04-8.39,5.36-1.85,1.88-3.16,4.13-3.97,6.77-.8,2.63-.81,5.71,0,9.21.99,4.02,2.72,7.49,5.32,10.38,2.61,2.89,5.72,5.21,9.42,6.91,3.71,1.74,7.81,2.88,12.32,3.37,4.51.49,9.06.41,13.6-.22.9-.12,1.8-.24,2.71-.36,4.27-.73,8.6-2.03,12.93-3.9Z"/>
    <path class="cls-1" d="M747.39,207.08c-.98-2.59-1.96-5.21-2.94-7.85,3.68-.22,7.45-.59,11.31-1.11-2.32-1.03-4.57-2.34-6.73-3.93-2.17-1.59-4.18-3.48-6.05-5.68-1.87-2.19-3.56-4.66-5.08-7.39-1.52-2.73-2.82-5.77-3.92-9.12-1.58-4.79-2.46-9.03-2.67-12.64-.2-3.61.1-6.66.93-9.12.84-2.4,2.18-4.24,4.02-5.53,1.85-1.29,4-2,6.49-2.16,10.72-.32,22.06-1.77,34.23-4.54,1.67,2.66,3.35,5.28,5.05,7.87-12.75,3.39-24.57,5.31-35.7,5.99-1.91.24-3.58.78-5.02,1.63-1.45.85-2.52,2.11-3.22,3.8-.68,1.68-.93,3.84-.79,6.48.15,2.63.86,5.78,2.15,9.38,1.11,3.08,2.49,5.97,4.19,8.65,1.7,2.68,3.56,5.03,5.62,7.04,2.08,2.06,4.28,3.73,6.62,5.01,2.34,1.28,4.66,2.09,6.94,2.45,13.95-2.43,29.12-6.82,45.91-13.56,1.84,2.29,3.71,4.56,5.59,6.8-25.57,10.7-47.45,16.1-66.92,17.54Z"/>
    <path class="cls-1" d="M716.34,56.25c-.1,1.54.12,3.59.63,6.14.49,2.32,1.14,4.81,1.94,7.43.81,2.63,1.6,5.08,2.37,7.35.82,2.49,1.67,5.01,2.56,7.56.89,2.55,1.7,4.97,2.44,7.27,1.02,3.03,1.95,6.04,2.75,9.03.8,2.99,1.38,5.75,1.71,8.29.36,2.76.35,5.18-.01,7.27-.36,2.09-1.3,3.53-2.77,4.29-1.86,1.08-4.03.77-6.47-1.01-2.44-1.78-4.78-4.36-7.06-7.75-2.11-3.13-4.13-6.68-6.07-10.65-1.94-3.97-3.7-8.06-5.28-12.24-1.8-4.76-3.39-9.59-4.78-14.47-1.39-4.88-2.42-9.42-3.08-13.56-.66-4.14-.88-7.72-.65-10.71.23-2.98,1.07-4.98,2.54-5.96,1.62,4.07,3.22,8.08,4.8,12.03-1.04.66-1.64,1.99-1.81,4.01-.17,2.01-.02,4.47.44,7.35.48,2.87,1.22,6,2.22,9.36,1,3.37,2.12,6.66,3.35,9.86,1.18,3,2.49,6.01,3.95,9.03,1.45,3.01,2.94,5.67,4.46,7.98,1.57,2.35,3.11,4.18,4.65,5.5,1.54,1.32,2.97,1.77,4.28,1.41,1.09-.35,1.76-1.24,1.99-2.66.23-1.42.19-3.11-.12-5.09-.31-1.98-.8-4.13-1.48-6.48-.67-2.35-1.38-4.65-2.12-6.91-.81-2.53-1.65-5.13-2.55-7.8-.89-2.67-1.72-5.27-2.49-7.76-1.01-3.23-1.97-6.48-2.9-9.77-.93-3.28-1.69-6.47-2.3-9.54-.69-3.53-.95-6.42-.79-8.64.17-2.21.89-3.41,2.18-3.57,1.61-.38,3.55.6,5.81,2.77,2.26,2.18,4.66,5.07,7.18,8.59,2.53,3.44,5.08,7.25,7.66,11.42,2.58,4.16,4.94,8.12,7.05,11.95,2.26,4.1,4.31,8.11,6.13,12.1,1.82,3.99,3.18,7.68,4.05,11.17.94,3.51,1.3,6.65,1.05,9.47-.25,2.82-1.32,4.99-3.18,6.47-1.68-2.97-3.35-6-5.01-9.08,1.21-1.11,1.89-2.66,2.05-4.63.16-1.97-.1-4.2-.77-6.71-.67-2.51-1.65-5.19-2.93-8.09-1.28-2.9-2.72-5.82-4.31-8.79-1.39-2.65-2.98-5.43-4.75-8.37-1.77-2.94-3.55-5.69-5.35-8.26-1.8-2.56-3.52-4.7-5.17-6.38-1.65-1.67-3.09-2.53-4.32-2.51-1.07,0-1.65.75-1.74,2.29Z"/>
  </g>
  <g>
    <path class="cls-1" d="M355.01,394.8c5.72,1.25,10.59,3.98,14.74,8.11,4.15,4.14,7.33,9.57,9.56,16.39,2.35,6.82,3.65,14.99,3.79,24.75.15,9.77-1.15,21-4.18,34.07-2.75,12.17-6.61,23.25-11.78,32.84-5.16,9.6-11.21,17.64-18.09,23.82-6.74,6.32-14.08,10.74-21.82,13.2-7.73,2.47-15.31,2.92-22.5,1.53-33.67-9.83-61.79-15.6-90.85-9.62,6.23-13.32,12.42-26.8,18.56-40.25,28.42-7.54,54.96-4.17,86,3.43,3.07.51,6.45.55,10.13.11,3.67-.43,7.35-1.69,10.98-3.78,3.59-1.96,6.95-4.92,10.03-8.85,3.08-3.92,5.52-9.2,7.36-15.71,2.08-7.17,2.96-13.27,2.72-18.39-.24-5.12-1.19-9.39-2.84-12.85-1.77-3.26-3.99-5.85-6.66-7.81-2.67-1.95-5.54-3.2-8.63-3.77-26.89-6.34-50.66-8.42-77.58-1.1,5.99-12.89,11.96-25.54,17.9-37.86,26.07-6.43,48.43-4.4,73.16,1.74Z"/>
    <path class="cls-1" d="M327.9,357.67c5.72-10.08,11.37-19.73,16.94-28.93,2.97,1.04,5.91,2.19,8.84,3.45-.11-2.45-.06-4.96.17-7.53.23-2.57.72-5.27,1.46-8.1.93-3.72,2.37-7.66,4.3-11.77,1.93-4.11,4.39-8.35,7.34-12.63,4.56-6.59,8.99-11.59,13.25-15.13,4.26-3.53,8.28-5.85,12.07-7.06,3.84-1.26,7.38-1.48,10.67-.75,3.29.74,6.21,2.18,8.84,4.26,9.74,9.44,19.94,19.8,32.25,30.25-4.22,6.39-8.49,13.31-12.79,20.83-13.38-10.24-24.55-20.24-35.17-29.06-1.65-1.16-3.36-1.89-5.15-2.18-1.79-.28-3.65-.05-5.59.74-2.02.83-4.12,2.27-6.29,4.34-2.18,2.07-4.5,4.95-6.98,8.71-1.74,2.62-3.22,5.21-4.41,7.75-1.19,2.54-2.13,4.99-2.79,7.33-.66,2.25-1.08,4.44-1.27,6.57-.19,2.13-.19,4.18-.02,6.16,13.75,8.93,28.16,20.27,45.93,32.27-4.45,9.7-8.93,20.09-13.45,31.21-27.32-17.16-47.37-32.4-68.16-40.74Z"/>
    <path class="cls-1" d="M461.7,194.09c1.95-1.13,3.95-2.1,5.98-2.91,1.61,5.45,3.18,10.85,4.8,16.2-2.05.83-4.07,1.79-6.07,2.88-2,1.1-3.99,2.37-5.99,3.83-2.18,1.6-4.09,3.37-5.69,5.28-1.6,1.91-2.96,3.96-4.06,6.12-.99,1.97-1.72,4.05-2.2,6.23-.47,2.18-.71,4.45-.7,6.81,5.99,12.33,12.63,24.81,21.42,37.07-4.62,4.18-9.34,8.75-14.17,13.81-15.25-20.42-24.63-40.73-34.75-59.72,5.33-4.99,10.48-9.56,15.45-13.79,1.2,2.45,2.4,4.91,3.59,7.38.37.77.74,1.54,1.11,2.31.45-2.65,1.08-5.25,1.86-7.8.78-2.54,1.83-5.03,3.11-7.45,1.29-2.32,2.8-4.54,4.52-6.63,1.71-2.09,3.68-4.01,5.9-5.72,1.97-1.47,3.94-2.77,5.89-3.9Z"/>
    <path class="cls-1" d="M511.09,243.69c-3.18-.41-6.16-1.46-8.86-3.17-2.87-1.82-5.3-4.15-7.26-7.01-1.97-2.86-3.57-5.95-4.82-9.26-4.11-12.96-7.28-26.33-10.69-40.17,4.28-2.33,8.33-4.56,12.15-6.79,3.7,14.26,7.14,27.89,11.54,40.9.66,1.7,1.42,3.38,2.28,5.02.87,1.65,1.87,3.01,3.01,4.11,1.14,1.09,2.45,1.81,3.92,2.15,1.47.35,3.11.1,4.87-.74,1.41-.66,2.6-1.46,3.56-2.42.97-.95,1.72-2.04,2.28-3.25.47-1.02.8-2.14,1.01-3.36.21-1.21.28-2.52.24-3.93-6.36-15.2-11.03-31.71-16.18-49.53,3.12-2.46,6.02-5.07,8.71-7.88,8.34,26.09,15.57,49.04,28.16,68.67-3.38,2.23-6.85,4.31-10.43,6.31-1.71-2.75-3.32-5.56-4.83-8.43,0,3.73-.59,7.09-1.87,10.12-1.27,3.03-3.57,5.32-6.97,6.88-3.33,1.58-6.65,2.17-9.82,1.77Z"/>
    <path class="cls-1" d="M526.64,88.69c16.83,43.98,26.85,77.83,42.62,104.42,4.12-3.91,8.09-8.24,11.9-12.97,2.99,4.2,6.13,8.18,9.49,11.95-12.4,14-25.93,24.09-40.4,31.08-1.99-4.03-3.82-8.19-5.53-12.48,4.85-2.54,9.54-5.44,14.08-8.79-11.29-22.45-18.92-49.33-29.94-82.13-2.48,4.22-5.18,8.04-8.16,11.47-1.73-5.95-3.58-12.09-5.6-18.42,4.64-6.77,8.39-14.88,11.54-24.12Z"/>
    <path class="cls-1" d="M598.05,148.52c-8.53-20.16-17.45-42.2-27.15-66.44,1.85-2.92,3.56-5.45,5.08-7.28,17.67,34.83,34.75,67.96,50.62,97.81,1.49,2.62,2.7,5.3,3.61,8.04.91,2.74,1.32,5.45,1.2,8.14-.06,2.77-.81,5.51-2.24,8.17-1.42,2.66-3.65,5.25-6.62,7.66-1.49,1.14-3.07,2.18-4.74,3.12-1.67.93-3.4,1.8-5.17,2.6-2.97-3.49-5.81-7.1-8.54-10.84.82-.6,1.69-1.18,2.63-1.77.93-.59,1.74-1.23,2.41-1.92,1.08-1.04,1.81-2.18,2.17-3.4.36-1.22.53-2.48.52-3.79-.13-1.27-.36-2.57-.69-3.91-.34-1.33-.64-2.63-.9-3.89-1.2-3.75-2.44-7.56-3.72-11.43-23.91-11.64-39.28-31.21-54.42-57.35,2.25-3.21,4.42-6.54,6.53-9.88,10.19,16.93,20.62,30.73,33.51,41.19,1.91,1.8,3.88,3.52,5.91,5.16Z"/>
  </g>
</svg>